<svg width="61" height="60" viewBox="0 0 61 60" fill="none" xmlns="http://www.w3.org/2000/svg">
<g clip-path="url(#clip0_514_179)">
<path fill-rule="evenodd" clip-rule="evenodd" d="M46.574 57.0259L18.6422 58.979C14.9382 59.2379 11.2831 58.0148 8.48091 55.5789C5.67868 53.143 3.95884 49.6937 3.69967 45.9897L1.74649 18.0579C1.48765 14.354 2.71071 10.6989 5.14664 7.89669C7.58258 5.09446 11.0319 3.37462 14.7358 3.11545L42.6676 1.16227C46.3716 0.903261 50.0267 2.12626 52.829 4.56223C55.6313 6.9982 57.3511 10.4476 57.6101 14.1516L59.5633 42.0834C59.8223 45.7874 58.5993 49.4425 56.1633 52.2448C53.7273 55.047 50.2779 56.7668 46.574 57.0259Z" fill="#FF0000"/>
<path fill-rule="evenodd" clip-rule="evenodd" d="M28.0546 17.9726L43.7663 16.8739C45.7802 16.733 47.6631 15.824 49.0261 14.3347C50.3891 12.8454 51.1281 10.8895 51.0906 8.871C51.053 6.85248 50.2417 4.92548 48.8242 3.48795C47.4067 2.05043 45.4912 1.21216 43.4734 1.14627C43.2053 1.15011 42.9391 1.14329 42.6676 1.16227L14.7358 3.11545C11.0319 3.37462 7.58258 5.09446 5.14664 7.89669C2.71071 10.6989 1.48765 14.354 1.74649 18.0579L3.69967 45.9897C3.21419 39.0448 5.50738 32.1914 10.0748 26.9372C14.6422 21.683 21.1097 18.4584 28.0546 17.9726Z" fill="#FF5A51"/>
<path fill-rule="evenodd" clip-rule="evenodd" d="M44.6207 29.094C41.8585 29.2872 39.2156 30.2951 37.0263 31.9903C34.8369 33.6855 33.1994 35.9918 32.3208 38.6177C31.4422 41.2435 31.362 44.0709 32.0903 46.7424C32.8186 49.4138 34.3227 51.8093 36.4125 53.6259C38.5022 55.4425 41.0837 56.5986 43.8305 56.948C46.5773 57.2974 49.3661 56.8245 51.8441 55.589C54.3221 54.3535 56.3781 52.411 57.7521 50.007C59.1261 47.603 59.7564 44.8455 59.5632 42.0833L57.61 14.1516C57.869 17.8555 56.646 21.5107 54.2101 24.313C51.7741 27.1152 48.3247 28.835 44.6207 29.094Z" fill="#D5002C"/>
<path fill-rule="evenodd" clip-rule="evenodd" d="M23.7247 18.1666C23.4488 18.0222 23.1394 17.954 22.8284 17.9691C22.5174 17.9843 22.2161 18.0821 21.9555 18.2526C21.6949 18.423 21.4846 18.6599 21.3462 18.9388C21.2077 19.2178 21.1463 19.5286 21.1681 19.8392L22.6844 41.523C22.706 41.8336 22.8101 42.1328 22.986 42.3897C23.1619 42.6467 23.4032 42.852 23.6849 42.9845C23.9667 43.1171 24.2787 43.172 24.5888 43.1437C24.8988 43.1154 25.1958 43.0048 25.4488 42.8234C29.7081 39.774 38.2115 33.6841 42.3087 30.7495C42.5517 30.5756 42.7461 30.3423 42.8734 30.0719C43.0007 29.8016 43.0566 29.5031 43.0357 29.2049C43.0149 28.9068 42.918 28.619 42.7543 28.369C42.5906 28.1189 42.3656 27.915 42.1008 27.7766C37.6351 25.4407 28.3669 20.5936 23.7247 18.1666Z" fill="white"/>
</g>
<defs>
<clipPath id="clip0_514_179">
<rect width="56" height="56" fill="white" transform="translate(0.769897 4.09204) rotate(-4)"/>
</clipPath>
</defs>
</svg>
