<svg width="59" height="60" viewBox="0 0 59 60" fill="none" xmlns="http://www.w3.org/2000/svg">
<path d="M7.05078 45.9549L53.6507 42.6963C55.564 38.67 56.499 34.1107 56.1659 29.3468C55.1335 14.5832 42.3284 3.45187 27.5648 4.48424C12.8012 5.51662 1.66991 18.3217 2.70228 33.0853C3.0353 37.8493 4.59566 42.234 7.05078 45.9549Z" fill="#D5002C"/>
<path d="M27.7135 39.8687C27.7135 39.8687 29.3833 40.4662 30.1486 41.4371C30.7714 40.3691 32.3418 39.5451 32.3418 39.5451L38.6334 35.7709C38.0744 35.6403 37.5072 35.5282 36.929 35.4366C35.7439 34.4064 35.3162 32.326 35.1629 30.8603C34.632 31.574 34.0647 32.1797 33.5165 32.6703C32.4483 33.6264 31.0879 34.2002 29.6525 34.3006C28.217 34.401 26.79 34.022 25.5992 33.2239C24.9881 32.8142 24.342 32.2935 23.7168 31.6607C23.769 33.1335 23.635 35.2531 22.6048 36.4382C22.0437 36.6097 21.4965 36.8002 20.96 37.0078L27.7135 39.8687Z" fill="#FFAA7B"/>
<path d="M29.3811 34.3138C28.0381 34.3515 26.7149 33.9716 25.5993 33.2239C24.9881 32.8143 24.342 32.2935 23.7168 31.6606C23.7622 32.9417 23.666 34.7116 22.9624 35.9307C24.2365 38.1062 25.815 39.8905 27.2092 38.802C28.9285 37.4596 29.3373 35.6145 29.3811 34.3138Z" fill="#FC9460"/>
<path d="M27.9188 39.5068L24.9214 38.237C23.716 38.6977 22.1025 39.7932 22.2217 42.3501C21.4 42.5523 17.2765 43.7663 17.5501 47.6791L18.097 55.5002C22.0878 57.3683 26.5955 58.2771 31.3032 57.9479C31.3966 57.9414 31.4892 57.9323 31.5823 57.9249C31.1657 51.9679 30.511 42.6042 30.4481 41.7056C30.3553 40.378 27.9188 39.5068 27.9188 39.5068Z" fill="#7E6DD1"/>
<path d="M18.2668 55.5785C18.1235 53.5284 17.8981 50.3058 17.7136 47.6676C17.418 43.4404 22.3934 42.4791 22.3934 42.4791C22.2057 39.7953 23.9426 38.7364 25.134 38.3272L21.5215 36.7968C14.2226 39.7547 10.7233 40.9782 8.95603 42.436C10.9849 43.6222 14.2223 46.1546 14.516 50.355L14.745 53.6288C15.8647 54.3639 17.0421 55.0158 18.2668 55.5785Z" fill="#7255CE"/>
<path d="M38.0461 35.6412L32.0883 39.2152C32.0883 39.2152 29.7967 40.4171 29.8895 41.7446L31.0237 57.9639C31.1169 57.9584 31.2099 57.9544 31.3033 57.9479C32.5571 57.8602 33.7844 57.6862 34.9806 57.4347L34.9798 57.4342L42.4363 54.6523L42.4364 54.6525C44.1117 53.7214 45.6738 52.6179 47.0991 51.3662C47.0195 50.2277 46.9419 49.1172 46.8702 48.0925C46.5765 43.8922 49.4301 40.9339 51.274 39.4768C49.3212 38.2791 45.6858 37.5546 38.0461 35.6412Z" fill="#9589E8"/>
<path d="M35.9396 32.968C35.8092 32.9075 35.6581 32.9908 35.6394 33.1334C35.5166 34.0607 34.908 36.9977 32.0195 38.9176C31.7351 39.1067 31.6918 39.5068 31.9338 39.7479L35.2167 43.0167C35.8987 43.6994 37.0514 43.4874 37.4476 42.6075C38.1175 41.12 39.0377 38.8628 39.6678 36.4612C39.7806 36.0312 39.6471 35.5738 39.3245 35.2678C38.3295 34.324 37.1866 33.5467 35.9396 32.968Z" fill="#B5B0F7"/>
<path d="M27.9472 39.2024C27.1947 38.8417 26.5657 38.4039 26.0394 37.9352C25.3118 38.0484 22.1613 38.7406 22.2187 42.1806C22.5285 42.7135 22.8232 43.1962 23.0854 43.612C23.6003 44.4281 24.7713 44.4777 25.3516 43.7067L28.1476 40.0128C28.3537 39.7403 28.255 39.35 27.9472 39.2024Z" fill="#9589E8"/>
<path d="M23.5576 33.9783C23.519 33.8398 23.3578 33.7781 23.2372 33.8563C22.0829 34.603 21.0593 35.5317 20.2054 36.6049C19.9286 36.9527 19.86 37.4243 20.0315 37.8344C20.7558 39.566 21.6327 41.1921 22.3936 42.479C22.1108 38.4333 26.2033 38.0784 26.2033 38.0784L26.2034 38.0781C24.4186 36.5729 23.754 34.6849 23.5576 33.9783Z" fill="#7E6DD1"/>
<path d="M46.8925 51.547C49.7279 49.1083 52.0371 46.0919 53.6506 42.6964C53.402 42.0987 53.14 41.5525 52.8636 41.0762C52.4654 40.3898 51.9427 39.8663 51.1611 39.4092C49.3227 40.8354 46.3526 43.8273 46.652 48.1078L46.8925 51.547Z" fill="#B5B0F7"/>
<path d="M9.05843 42.3533C8.34808 42.9149 7.90326 43.5059 7.60457 44.241C7.39728 44.7512 7.21376 45.3285 7.05067 45.9549C9.12108 49.0929 11.8276 51.7587 14.9748 53.7789C14.8912 52.5824 14.8095 51.4141 14.7343 50.3397C14.4351 46.0591 11.0774 43.5098 9.05843 42.3533Z" fill="#7E6DD1"/>
<path d="M46.3441 10.4306C43.9374 12.4841 41.0009 15.8675 42.6166 19.7364C45.1188 25.7281 36.0061 30.2543 46.7915 33.9696C51.1039 35.4552 53.6671 37.1406 55.1919 38.6287C56.0363 35.6958 56.3911 32.5683 56.1659 29.3469C55.6277 21.6514 51.8897 14.944 46.3441 10.4306Z" fill="#FF0000"/>
<path d="M9.79555 12.9862C12.4646 14.6848 15.8435 17.6266 14.7819 21.6827C13.138 27.9643 22.7919 31.1782 12.6285 36.3584C8.56484 38.4298 6.26103 40.4554 4.95829 42.1413C3.71392 39.3545 2.92726 36.3067 2.702 33.0854C2.16399 25.3898 4.93213 18.2275 9.79555 12.9862Z" fill="#FF0000"/>
<path d="M18.6555 19.9617L38.652 18.5634C38.5867 17.1201 38.5603 13.2897 39.8761 10.4679C40.0591 10.0754 40.0651 9.62389 39.8909 9.22743C39.238 7.74227 37.3569 4.29509 33.7311 3.59408C33.538 3.55672 33.4707 3.31494 33.6165 3.18294L34.1206 2.72655C34.3491 2.51957 34.2293 2.14004 33.9232 2.10301C31.2617 1.78016 22.4553 1.17806 20.1357 6.93826C19.9973 7.28202 19.7093 7.54271 19.3579 7.66037C18.5838 7.91953 17.2089 8.63361 16.4137 10.541C16.2581 10.914 16.2565 11.3341 16.4127 11.7069C16.9544 12.999 18.2972 16.4766 18.6555 19.9617Z" fill="#56415E"/>
<path d="M26.9872 10.5305C23.4531 5.8866 28.7944 1.98865 28.7944 1.98865C25.4094 2.26943 21.5562 3.41074 20.1357 6.93826C19.9972 7.28202 19.7092 7.54271 19.3578 7.66037C18.5838 7.91953 17.2089 8.63361 16.4136 10.541C16.258 10.914 16.2565 11.3341 16.4127 11.7069C16.9544 12.999 18.2971 16.4766 18.6555 19.9617L23.3101 19.6362C26.0892 17.0439 29.0873 13.29 26.9872 10.5305Z" fill="#45304C"/>
<path d="M39.3873 17.9264C38.911 17.5474 37.9247 17.8254 37.5566 18.1035C37.6779 18.6236 37.7203 19.1614 37.6845 19.6979L37.4612 23.0435C37.4799 23.3106 37.4898 23.5733 37.4923 23.8319C38.6252 24.0889 39.2158 23.0467 39.2609 22.3566C39.2802 22.0596 39.3253 21.765 39.3962 21.4756C39.6269 20.5335 40.5808 18.8758 39.3873 17.9264Z" fill="#FFAA7B"/>
<path d="M17.7279 19.4408C18.1468 18.9992 19.1622 19.1372 19.5654 19.3614C19.5177 19.8933 19.5506 20.4318 19.6607 20.958L20.3474 24.24C20.3661 24.5071 20.3928 24.7686 20.4263 25.025C19.3402 25.4373 18.6103 24.4874 18.4697 23.8103C18.4092 23.5188 18.3235 23.2334 18.2131 22.9567C17.8535 22.0558 16.6781 20.5471 17.7279 19.4408Z" fill="#FC9460"/>
<path d="M37.3203 17.0912C37.1992 16.8312 37.0512 16.5696 36.8707 16.3258C36.5649 15.9128 36.408 15.41 36.4093 14.8976C36.4129 13.424 36.1555 10.5603 34.1701 9.82876C32.4834 9.20728 30.5073 9.77362 29.2578 10.2884C28.4763 10.6104 27.6126 10.6799 26.7905 10.4897C25.4112 11.7102 25.5531 14.2312 25.7454 15.5653C25.8189 16.0753 25.7286 16.5968 25.482 17.0509C25.3399 17.3126 25.2306 17.5866 25.1469 17.8562C24.875 18.7306 24.8429 19.6607 25.0303 20.556L25.7262 23.8823C26.0639 28.7105 28.8707 31.8121 31.1821 33.3613C31.5233 33.59 31.8846 33.7819 32.259 33.9411C32.718 33.698 33.1488 33.3997 33.5401 33.0494C35.5863 31.2179 37.9035 27.8011 37.5702 23.0359L37.7935 19.6902C37.8532 18.7983 37.6981 17.9025 37.3203 17.0912Z" fill="#FFC7AB"/>
<path d="M31.1874 33.2139C28.9062 31.685 26.1361 28.6239 25.8029 23.8587L25.116 20.5759C24.9311 19.6923 24.9627 18.7743 25.231 17.9113C25.3137 17.6453 25.4214 17.3748 25.5618 17.1165C25.8052 16.6684 25.8943 16.1538 25.8218 15.6504C25.626 14.2918 25.483 11.6865 26.9872 10.5303C26.8896 10.5128 26.7924 10.4922 26.6958 10.4674C25.3868 10.1315 23.3511 9.84573 21.7674 10.6959C19.8978 11.6994 20.0476 14.5847 20.2573 16.0395C20.3299 16.5429 20.2406 17.0575 19.9972 17.5057C19.857 17.7639 19.7491 18.0344 19.6664 18.3005C19.3982 19.1635 19.3665 20.0814 19.5514 20.965L20.2383 24.2478C20.5715 29.013 23.3418 32.074 25.6229 33.603C26.8136 34.401 28.2407 34.7799 29.6761 34.6796C30.6455 34.6118 31.5803 34.3272 32.4144 33.8558C31.9858 33.6871 31.5741 33.473 31.1874 33.2139Z" fill="#FFAA7B"/>
</svg>
