<svg width="60" height="61" viewBox="0 0 60 61" fill="none" xmlns="http://www.w3.org/2000/svg">
<path d="M28.0016 2.44884C26.9685 2.52109 25.9537 2.65286 24.9571 2.83207C23.9112 4.20951 21.4531 7.93491 21.7411 12.2379C21.9311 15.0806 23.2884 17.6184 25.7763 19.7807C33.682 26.6527 32.8055 37.2254 32.745 37.8547C32.5555 38.7354 29.8354 52.4413 41.4734 55.9086C51.8498 51.2251 58.7276 40.4484 57.887 28.4278C56.8083 13.0015 43.4279 1.37013 28.0016 2.44884V2.44884Z" fill="white"/>
<path d="M42.3201 55.504C29.9728 52.4166 33.3607 37.9531 33.3607 37.9531C33.3607 37.9531 34.651 26.6697 26.1843 19.3097C17.8724 12.0843 25.5855 3.01615 25.8703 2.68723C11.52 4.78887 0.994257 17.6272 2.02263 32.3336C3.10137 47.7603 16.4813 59.3913 31.908 58.3126C35.6448 58.0517 39.1555 57.0633 42.3201 55.504Z" fill="#E8EDFF"/>
<path d="M20.7681 22.8978L21.899 39.0704C22.1014 41.9647 25.3838 43.5317 27.7617 41.8691L40.6731 32.8406C42.9822 31.2258 42.7379 27.7326 40.2266 26.4549L26.1843 19.3111C23.5985 17.9948 20.5657 20.0035 20.7681 22.8978V22.8978Z" fill="#FF0000"/>
</svg>
