<svg width="66" height="66" viewBox="0 0 66 66" fill="none" xmlns="http://www.w3.org/2000/svg">
<g clip-path="url(#clip0_370_1972)">
<path d="M28.7338 11.7367C27.8441 11.908 27.2617 12.7682 27.4329 13.6579C27.6042 14.5476 28.4644 15.1301 29.3541 14.9588C34.685 13.9326 39.8568 17.4339 40.8829 22.7639C41.0542 23.6536 41.9144 24.2361 42.8041 24.0648C43.6938 23.8935 44.2763 23.0333 44.105 22.1436C42.7369 15.037 35.8414 10.3684 28.7338 11.7367Z" fill="#FF1CD6"/>
<path d="M23.4258 6.52557C16.4399 9.44774 11.6634 16.4292 11.5204 24.0521C11.3997 30.489 14.2109 36.3869 19.2331 40.2335C21.6881 42.1136 23.422 44.8855 23.992 47.8467L24.6123 51.0688C25.025 53.2126 26.7791 54.7636 28.8365 55.0217C30.1974 58.6609 34.0452 61.0594 38.0813 60.2824C42.1163 59.5056 44.7997 55.8508 44.7122 51.9654C46.5268 50.9619 47.5796 48.8705 47.1669 46.7266L46.5466 43.5045C45.9754 40.5375 46.5671 37.3553 48.2123 34.544C50.6206 30.4292 51.4505 25.5846 50.5492 20.903C48.2011 8.70575 35.2511 1.57963 23.4258 6.52557ZM37.461 57.0604C35.3901 57.4591 33.3 56.3836 32.2608 54.5975L41.3751 52.8429C41.0734 54.8871 39.532 56.6617 37.461 57.0604ZM43.9448 47.347C44.1158 48.2354 43.5323 49.0972 42.6439 49.2682L29.7556 51.7494C28.8673 51.9204 28.0054 51.3368 27.8344 50.4485L27.5243 48.8375L43.6347 45.736L43.9448 47.347ZM45.3805 32.8868C43.6271 35.8827 42.8398 39.2399 43.103 42.4968L26.8157 45.6324C25.851 42.5087 23.8712 39.6527 21.2285 37.6285C17.0428 34.4227 14.7001 29.4966 14.8011 24.1136C14.919 17.8296 18.8938 11.9781 24.6921 9.55277C34.5904 5.41208 45.3722 11.3685 47.3272 21.5232C48.078 25.4233 47.3866 29.4589 45.3805 32.8868Z" fill="#FF1CD6"/>
<path d="M8.55469 28.9875L5.3326 29.6078C4.44288 29.7791 3.86042 30.6393 4.0317 31.529C4.20299 32.4187 5.06317 33.0012 5.95289 32.8299L9.17498 32.2096C10.0647 32.0383 10.6472 31.1781 10.4759 30.2884C10.3046 29.3987 9.44441 28.8162 8.55469 28.9875Z" fill="#FF1CD6"/>
<path d="M7.67128 20.8036L4.95433 18.9639C4.20415 18.4558 3.18404 18.6522 2.676 19.4025C2.16795 20.1528 2.36432 21.1728 3.11461 21.6809L5.83156 23.5206C6.58174 24.0286 7.60187 23.8324 8.10989 23.082C8.61793 22.3317 8.42157 21.3117 7.67128 20.8036Z" fill="#FF1CD6"/>
<path d="M10.9544 37.8578C10.2041 37.3498 9.18395 37.5462 8.67601 38.2964L6.83629 41.0134C6.32824 41.7637 6.52461 42.7837 7.2749 43.2917C8.02508 43.7998 9.04521 43.6035 9.55323 42.8531L11.393 40.1362C11.901 39.3859 11.7046 38.3659 10.9544 37.8578Z" fill="#FF1CD6"/>
<path d="M57.1008 19.6416L53.8787 20.2619C52.989 20.4332 52.4066 21.2933 52.5778 22.1831C52.7491 23.0728 53.6093 23.6552 54.499 23.484L57.7211 22.8637C58.6108 22.6924 59.1933 21.8322 59.022 20.9425C58.8507 20.0528 57.9906 19.4703 57.1008 19.6416Z" fill="#FF1CD6"/>
<path d="M55.7787 9.17959C55.0285 8.67153 54.0084 8.86791 53.5004 9.6182L51.6606 12.3352C51.1526 13.0854 51.3489 14.1054 52.0992 14.6135C52.8494 15.1214 53.8695 14.9252 54.3776 14.1749L56.2173 11.4579C56.7253 10.7076 56.529 9.68764 55.7787 9.17959Z" fill="#FF1CD6"/>
<path d="M59.9391 30.7904L57.2222 28.9507C56.472 28.4427 55.4519 28.639 54.9438 29.3893C54.4358 30.1396 54.6321 31.1596 55.3824 31.6677L58.0994 33.5074C58.8495 34.0154 59.8697 33.8191 60.3777 33.0688C60.8858 32.3185 60.6894 31.2985 59.9391 30.7904Z" fill="#FF1CD6"/>
</g>
<defs>
<clipPath id="clip0_370_1972">
<rect width="56" height="56" fill="white" transform="translate(0 10.5864) rotate(-10.8969)"/>
</clipPath>
</defs>
</svg>
